<svg width="80" height="78" viewBox="0 0 80 78" fill="none" xmlns="http://www.w3.org/2000/svg">
<mask id="mask0_4_35" style="mask-type:alpha" maskUnits="userSpaceOnUse" x="0" y="0" width="80" height="78">
<rect width="80" height="78" fill="#D9D9D9"/>
</mask>
<g mask="url(#mask0_4_35)">
<path d="M66.5 68.25C59.3333 68.25 52.3472 66.6927 45.5417 63.5781C38.7361 60.4635 32.7083 56.3469 27.4583 51.2281C22.2083 46.1094 17.9861 40.2323 14.7917 33.5969C11.5972 26.9615 10 20.15 10 13.1625C10 12.1875 10.3333 11.375 11 10.725C11.6667 10.075 12.5 9.75 13.5 9.75H27C27.7778 9.75 28.4722 9.99375 29.0833 10.4813C29.6944 10.9688 30.0556 11.5917 30.1667 12.35L32.3333 23.725C32.4444 24.4833 32.4306 25.174 32.2917 25.7969C32.1528 26.4198 31.8333 26.975 31.3333 27.4625L23.25 35.425C25.5833 39.325 28.5139 42.9813 32.0417 46.3938C35.5694 49.8063 39.4444 52.7583 43.6667 55.25L51.5 47.6125C52 47.125 52.6528 46.7594 53.4583 46.5156C54.2639 46.2719 55.0556 46.2042 55.8333 46.3125L67.3333 48.5875C68.1111 48.75 68.75 49.1156 69.25 49.6844C69.75 50.2531 70 50.9167 70 51.675V64.8375C70 65.8125 69.6667 66.625 69 67.275C68.3333 67.925 67.5 68.25 66.5 68.25ZM20.0833 29.25L25.5833 23.8875L24.1667 16.25H16.75C17.0278 18.4708 17.4167 20.6646 17.9167 22.8313C18.4167 24.9979 19.1389 27.1375 20.0833 29.25ZM49.9167 58.3375C52.0833 59.2583 54.2917 59.9896 56.5417 60.5312C58.7917 61.0729 61.0556 61.425 63.3333 61.5875V54.4375L55.5 52.8938L49.9167 58.3375Z" fill="#444545"/>
</g>
</svg>
