<svg width="80" height="78" viewBox="0 0 80 78" fill="none" xmlns="http://www.w3.org/2000/svg">
<mask id="mask0_4_41" style="mask-type:alpha" maskUnits="userSpaceOnUse" x="0" y="0" width="80" height="78">
<rect width="80" height="78" fill="#D9D9D9"/>
</mask>
<g mask="url(#mask0_4_41)">
<path d="M13.3333 65C11.5 65 9.93052 64.3635 8.62496 63.0906C7.3194 61.8177 6.66663 60.2875 6.66663 58.5V19.5C6.66663 17.7125 7.3194 16.1823 8.62496 14.9094C9.93052 13.6365 11.5 13 13.3333 13H66.6666C68.5 13 70.0694 13.6365 71.375 14.9094C72.6805 16.1823 73.3333 17.7125 73.3333 19.5V58.5C73.3333 60.2875 72.6805 61.8177 71.375 63.0906C70.0694 64.3635 68.5 65 66.6666 65H13.3333ZM40 42.25L13.3333 26V58.5H66.6666V26L40 42.25ZM40 35.75L66.6666 19.5H13.3333L40 35.75ZM13.3333 26V19.5V58.5V26Z" fill="#424242"/>
</g>
</svg>
