<svg width="554" height="516" viewBox="0 0 554 516" fill="none" xmlns="http://www.w3.org/2000/svg">
<rect width="554" height="516" fill="#D6F7D6"/>
<path d="M150.719 236V201.091H162.515C165.254 201.091 167.492 201.585 169.231 202.574C170.981 203.551 172.276 204.875 173.117 206.545C173.958 208.216 174.379 210.08 174.379 212.136C174.379 214.193 173.958 216.062 173.117 217.744C172.288 219.426 171.004 220.767 169.265 221.767C167.526 222.756 165.299 223.25 162.583 223.25H154.129V219.5H162.447C164.322 219.5 165.827 219.176 166.964 218.528C168.1 217.881 168.924 217.006 169.435 215.903C169.958 214.79 170.219 213.534 170.219 212.136C170.219 210.739 169.958 209.489 169.435 208.386C168.924 207.284 168.094 206.42 166.947 205.795C165.799 205.159 164.276 204.841 162.379 204.841H154.947V236H150.719ZM184.665 201.091V236H180.643V201.091H184.665ZM199.738 236.614C198.079 236.614 196.573 236.301 195.221 235.676C193.869 235.04 192.795 234.125 191.999 232.932C191.204 231.727 190.806 230.273 190.806 228.568C190.806 227.068 191.102 225.852 191.692 224.92C192.283 223.977 193.073 223.239 194.062 222.705C195.05 222.17 196.141 221.773 197.335 221.511C198.539 221.239 199.749 221.023 200.965 220.864C202.556 220.659 203.846 220.506 204.835 220.403C205.835 220.29 206.562 220.102 207.016 219.841C207.482 219.58 207.715 219.125 207.715 218.477V218.341C207.715 216.659 207.255 215.352 206.335 214.42C205.425 213.489 204.045 213.023 202.192 213.023C200.272 213.023 198.766 213.443 197.675 214.284C196.585 215.125 195.817 216.023 195.374 216.977L191.556 215.614C192.238 214.023 193.147 212.784 194.283 211.898C195.431 211 196.681 210.375 198.033 210.023C199.397 209.659 200.738 209.477 202.056 209.477C202.897 209.477 203.863 209.58 204.954 209.784C206.056 209.977 207.119 210.381 208.141 210.994C209.175 211.608 210.033 212.534 210.715 213.773C211.397 215.011 211.738 216.67 211.738 218.75V236H207.715V232.455H207.511C207.238 233.023 206.783 233.631 206.147 234.278C205.511 234.926 204.664 235.477 203.607 235.932C202.55 236.386 201.261 236.614 199.738 236.614ZM200.352 233C201.942 233 203.283 232.688 204.374 232.062C205.477 231.438 206.306 230.631 206.863 229.642C207.431 228.653 207.715 227.614 207.715 226.523V222.841C207.545 223.045 207.17 223.233 206.59 223.403C206.022 223.562 205.363 223.705 204.613 223.83C203.874 223.943 203.153 224.045 202.448 224.136C201.755 224.216 201.192 224.284 200.761 224.341C199.715 224.477 198.738 224.699 197.829 225.006C196.931 225.301 196.204 225.75 195.647 226.352C195.102 226.943 194.829 227.75 194.829 228.773C194.829 230.17 195.346 231.227 196.38 231.943C197.425 232.648 198.749 233 200.352 233ZM229.717 236.545C227.262 236.545 225.148 235.966 223.376 234.807C221.603 233.648 220.239 232.051 219.285 230.017C218.33 227.983 217.853 225.659 217.853 223.045C217.853 220.386 218.342 218.04 219.319 216.006C220.308 213.96 221.683 212.364 223.444 211.216C225.217 210.057 227.285 209.477 229.648 209.477C231.489 209.477 233.148 209.818 234.626 210.5C236.103 211.182 237.313 212.136 238.256 213.364C239.2 214.591 239.785 216.023 240.012 217.659H235.989C235.683 216.466 235.001 215.409 233.944 214.489C232.898 213.557 231.489 213.091 229.717 213.091C228.148 213.091 226.773 213.5 225.592 214.318C224.421 215.125 223.506 216.267 222.847 217.744C222.2 219.21 221.876 220.932 221.876 222.909C221.876 224.932 222.194 226.693 222.83 228.193C223.478 229.693 224.387 230.858 225.558 231.688C226.739 232.517 228.126 232.932 229.717 232.932C230.762 232.932 231.711 232.75 232.563 232.386C233.415 232.023 234.137 231.5 234.728 230.818C235.319 230.136 235.739 229.318 235.989 228.364H240.012C239.785 229.909 239.222 231.301 238.325 232.54C237.438 233.767 236.262 234.744 234.796 235.472C233.342 236.188 231.648 236.545 229.717 236.545ZM256.87 236.545C254.347 236.545 252.171 235.989 250.342 234.875C248.523 233.75 247.12 232.182 246.131 230.17C245.154 228.148 244.665 225.795 244.665 223.114C244.665 220.432 245.154 218.068 246.131 216.023C247.12 213.966 248.495 212.364 250.256 211.216C252.029 210.057 254.097 209.477 256.461 209.477C257.825 209.477 259.171 209.705 260.501 210.159C261.83 210.614 263.04 211.352 264.131 212.375C265.222 213.386 266.092 214.727 266.739 216.398C267.387 218.068 267.711 220.125 267.711 222.568V224.273H247.529V220.795H263.62C263.62 219.318 263.325 218 262.734 216.841C262.154 215.682 261.325 214.767 260.245 214.097C259.177 213.426 257.915 213.091 256.461 213.091C254.859 213.091 253.472 213.489 252.302 214.284C251.143 215.068 250.251 216.091 249.626 217.352C249.001 218.614 248.688 219.966 248.688 221.409V223.727C248.688 225.705 249.029 227.381 249.711 228.756C250.404 230.119 251.364 231.159 252.592 231.875C253.819 232.58 255.245 232.932 256.87 232.932C257.927 232.932 258.881 232.784 259.734 232.489C260.597 232.182 261.342 231.727 261.967 231.125C262.592 230.511 263.075 229.75 263.415 228.841L267.302 229.932C266.893 231.25 266.205 232.409 265.239 233.409C264.273 234.398 263.08 235.17 261.66 235.727C260.239 236.273 258.643 236.545 256.87 236.545ZM277.853 220.25V236H273.83V201.091H277.853V213.909H278.194C278.808 212.557 279.728 211.483 280.955 210.688C282.194 209.881 283.842 209.477 285.898 209.477C287.683 209.477 289.245 209.835 290.586 210.551C291.927 211.256 292.967 212.341 293.705 213.807C294.455 215.261 294.83 217.114 294.83 219.364V236H290.808V219.636C290.808 217.557 290.268 215.949 289.188 214.812C288.12 213.665 286.637 213.091 284.739 213.091C283.421 213.091 282.239 213.369 281.194 213.926C280.16 214.483 279.342 215.295 278.739 216.364C278.148 217.432 277.853 218.727 277.853 220.25ZM312.826 236.545C310.462 236.545 308.388 235.983 306.604 234.858C304.832 233.733 303.445 232.159 302.445 230.136C301.457 228.114 300.962 225.75 300.962 223.045C300.962 220.318 301.457 217.937 302.445 215.903C303.445 213.869 304.832 212.29 306.604 211.165C308.388 210.04 310.462 209.477 312.826 209.477C315.19 209.477 317.258 210.04 319.031 211.165C320.815 212.29 322.201 213.869 323.19 215.903C324.19 217.937 324.69 220.318 324.69 223.045C324.69 225.75 324.19 228.114 323.19 230.136C322.201 232.159 320.815 233.733 319.031 234.858C317.258 235.983 315.19 236.545 312.826 236.545ZM312.826 232.932C314.621 232.932 316.099 232.472 317.258 231.551C318.417 230.631 319.275 229.42 319.832 227.92C320.388 226.42 320.667 224.795 320.667 223.045C320.667 221.295 320.388 219.665 319.832 218.153C319.275 216.642 318.417 215.42 317.258 214.489C316.099 213.557 314.621 213.091 312.826 213.091C311.031 213.091 309.553 213.557 308.394 214.489C307.235 215.42 306.377 216.642 305.82 218.153C305.263 219.665 304.985 221.295 304.985 223.045C304.985 224.795 305.263 226.42 305.82 227.92C306.377 229.42 307.235 230.631 308.394 231.551C309.553 232.472 311.031 232.932 312.826 232.932ZM334.853 201.091V236H330.83V201.091H334.853ZM352.107 236.545C349.925 236.545 347.999 235.994 346.329 234.892C344.658 233.778 343.352 232.21 342.408 230.188C341.465 228.153 340.994 225.75 340.994 222.977C340.994 220.227 341.465 217.841 342.408 215.818C343.352 213.795 344.664 212.233 346.346 211.131C348.028 210.028 349.971 209.477 352.175 209.477C353.88 209.477 355.227 209.761 356.215 210.33C357.215 210.886 357.977 211.523 358.499 212.239C359.033 212.943 359.448 213.523 359.744 213.977H360.085V201.091H364.107V236H360.221V231.977H359.744C359.448 232.455 359.028 233.057 358.482 233.784C357.937 234.5 357.158 235.142 356.147 235.71C355.136 236.267 353.789 236.545 352.107 236.545ZM352.653 232.932C354.266 232.932 355.63 232.511 356.744 231.67C357.857 230.818 358.704 229.642 359.283 228.142C359.863 226.631 360.153 224.886 360.153 222.909C360.153 220.955 359.869 219.244 359.3 217.778C358.732 216.301 357.891 215.153 356.778 214.335C355.664 213.506 354.289 213.091 352.653 213.091C350.948 213.091 349.528 213.528 348.391 214.403C347.266 215.267 346.42 216.443 345.852 217.932C345.295 219.409 345.016 221.068 345.016 222.909C345.016 224.773 345.3 226.466 345.869 227.989C346.448 229.5 347.3 230.705 348.425 231.602C349.562 232.489 350.971 232.932 352.653 232.932ZM383.011 236.545C380.488 236.545 378.312 235.989 376.482 234.875C374.664 233.75 373.261 232.182 372.272 230.17C371.295 228.148 370.806 225.795 370.806 223.114C370.806 220.432 371.295 218.068 372.272 216.023C373.261 213.966 374.636 212.364 376.397 211.216C378.17 210.057 380.238 209.477 382.602 209.477C383.965 209.477 385.312 209.705 386.641 210.159C387.971 210.614 389.181 211.352 390.272 212.375C391.363 213.386 392.232 214.727 392.88 216.398C393.528 218.068 393.852 220.125 393.852 222.568V224.273H373.67V220.795H389.761C389.761 219.318 389.465 218 388.874 216.841C388.295 215.682 387.465 214.767 386.386 214.097C385.317 213.426 384.056 213.091 382.602 213.091C380.999 213.091 379.613 213.489 378.442 214.284C377.283 215.068 376.391 216.091 375.766 217.352C375.141 218.614 374.829 219.966 374.829 221.409V223.727C374.829 225.705 375.17 227.381 375.852 228.756C376.545 230.119 377.505 231.159 378.732 231.875C379.96 232.58 381.386 232.932 383.011 232.932C384.067 232.932 385.022 232.784 385.874 232.489C386.738 232.182 387.482 231.727 388.107 231.125C388.732 230.511 389.215 229.75 389.556 228.841L393.442 229.932C393.033 231.25 392.346 232.409 391.38 233.409C390.414 234.398 389.221 235.17 387.8 235.727C386.38 236.273 384.783 236.545 383.011 236.545ZM399.971 236V209.818H403.857V213.773H404.13C404.607 212.477 405.471 211.426 406.721 210.619C407.971 209.812 409.38 209.409 410.948 209.409C411.244 209.409 411.613 209.415 412.056 209.426C412.499 209.437 412.835 209.455 413.062 209.477V213.568C412.925 213.534 412.613 213.483 412.124 213.415C411.647 213.335 411.141 213.295 410.607 213.295C409.335 213.295 408.198 213.562 407.198 214.097C406.21 214.619 405.425 215.347 404.846 216.278C404.278 217.199 403.994 218.25 403.994 219.432V236H399.971ZM423.148 201.091L422.808 226.182H418.853L418.512 201.091H423.148ZM420.83 236.273C419.989 236.273 419.268 235.972 418.665 235.369C418.063 234.767 417.762 234.045 417.762 233.205C417.762 232.364 418.063 231.642 418.665 231.04C419.268 230.437 419.989 230.136 420.83 230.136C421.671 230.136 422.393 230.437 422.995 231.04C423.597 231.642 423.898 232.364 423.898 233.205C423.898 233.761 423.756 234.273 423.472 234.739C423.2 235.205 422.83 235.58 422.364 235.864C421.91 236.136 421.398 236.273 420.83 236.273ZM104.215 276.545C104.215 272.25 104.772 268.301 105.886 264.699C107.011 261.085 108.613 257.761 110.692 254.727H114.238C113.42 255.852 112.653 257.239 111.937 258.886C111.232 260.523 110.613 262.324 110.079 264.29C109.545 266.244 109.124 268.267 108.817 270.358C108.522 272.449 108.374 274.511 108.374 276.545C108.374 279.25 108.636 281.994 109.158 284.778C109.681 287.562 110.386 290.148 111.272 292.534C112.158 294.92 113.147 296.864 114.238 298.364H110.692C108.613 295.33 107.011 292.011 105.886 288.409C104.772 284.795 104.215 280.841 104.215 276.545ZM122.151 294H117.719L130.538 259.091H134.901L147.719 294H143.288L132.856 264.614H132.583L122.151 294ZM123.788 280.364H141.651V284.114H123.788V280.364ZM156.634 278.25V294H152.612V267.818H156.498V271.909H156.839C157.452 270.58 158.384 269.511 159.634 268.705C160.884 267.886 162.498 267.477 164.475 267.477C166.248 267.477 167.799 267.841 169.129 268.568C170.458 269.284 171.492 270.375 172.231 271.841C172.969 273.295 173.339 275.136 173.339 277.364V294H169.316V277.636C169.316 275.58 168.782 273.977 167.714 272.83C166.646 271.67 165.18 271.091 163.316 271.091C162.032 271.091 160.884 271.369 159.873 271.926C158.873 272.483 158.083 273.295 157.504 274.364C156.924 275.432 156.634 276.727 156.634 278.25ZM180.69 294V267.818H184.712V294H180.69ZM182.735 263.455C181.951 263.455 181.275 263.188 180.707 262.653C180.15 262.119 179.871 261.477 179.871 260.727C179.871 259.977 180.15 259.335 180.707 258.801C181.275 258.267 181.951 258 182.735 258C183.519 258 184.19 258.267 184.746 258.801C185.315 259.335 185.599 259.977 185.599 260.727C185.599 261.477 185.315 262.119 184.746 262.653C184.19 263.188 183.519 263.455 182.735 263.455ZM192.08 294V267.818H195.967V271.909H196.308C196.853 270.511 197.734 269.426 198.95 268.653C200.165 267.869 201.626 267.477 203.33 267.477C205.058 267.477 206.495 267.869 207.643 268.653C208.802 269.426 209.705 270.511 210.353 271.909H210.626C211.296 270.557 212.302 269.483 213.643 268.688C214.984 267.881 216.592 267.477 218.467 267.477C220.808 267.477 222.722 268.21 224.211 269.676C225.7 271.131 226.444 273.398 226.444 276.477V294H222.421V276.477C222.421 274.545 221.893 273.165 220.836 272.335C219.779 271.506 218.535 271.091 217.103 271.091C215.262 271.091 213.836 271.648 212.825 272.761C211.813 273.864 211.308 275.261 211.308 276.955V294H207.217V276.068C207.217 274.58 206.734 273.381 205.768 272.472C204.802 271.551 203.558 271.091 202.035 271.091C200.989 271.091 200.012 271.369 199.103 271.926C198.205 272.483 197.478 273.256 196.921 274.244C196.376 275.222 196.103 276.352 196.103 277.636V294H192.08ZM241.504 294.614C239.844 294.614 238.339 294.301 236.987 293.676C235.634 293.04 234.56 292.125 233.765 290.932C232.969 289.727 232.572 288.273 232.572 286.568C232.572 285.068 232.867 283.852 233.458 282.92C234.049 281.977 234.839 281.239 235.827 280.705C236.816 280.17 237.907 279.773 239.1 279.511C240.305 279.239 241.515 279.023 242.731 278.864C244.322 278.659 245.612 278.506 246.6 278.403C247.6 278.29 248.327 278.102 248.782 277.841C249.248 277.58 249.481 277.125 249.481 276.477V276.341C249.481 274.659 249.021 273.352 248.1 272.42C247.191 271.489 245.81 271.023 243.958 271.023C242.038 271.023 240.532 271.443 239.441 272.284C238.35 273.125 237.583 274.023 237.14 274.977L233.322 273.614C234.004 272.023 234.913 270.784 236.049 269.898C237.197 269 238.447 268.375 239.799 268.023C241.163 267.659 242.504 267.477 243.822 267.477C244.663 267.477 245.629 267.58 246.719 267.784C247.822 267.977 248.884 268.381 249.907 268.994C250.941 269.608 251.799 270.534 252.481 271.773C253.163 273.011 253.504 274.67 253.504 276.75V294H249.481V290.455H249.276C249.004 291.023 248.549 291.631 247.913 292.278C247.276 292.926 246.43 293.477 245.373 293.932C244.316 294.386 243.026 294.614 241.504 294.614ZM242.117 291C243.708 291 245.049 290.688 246.14 290.062C247.242 289.438 248.072 288.631 248.629 287.642C249.197 286.653 249.481 285.614 249.481 284.523V280.841C249.31 281.045 248.935 281.233 248.356 281.403C247.788 281.562 247.129 281.705 246.379 281.83C245.64 281.943 244.918 282.045 244.214 282.136C243.521 282.216 242.958 282.284 242.526 282.341C241.481 282.477 240.504 282.699 239.594 283.006C238.697 283.301 237.969 283.75 237.413 284.352C236.867 284.943 236.594 285.75 236.594 286.773C236.594 288.17 237.112 289.227 238.146 289.943C239.191 290.648 240.515 291 242.117 291ZM272.232 267.818V271.227H258.664V267.818H272.232ZM262.619 261.545H266.641V286.5C266.641 287.636 266.806 288.489 267.136 289.057C267.477 289.614 267.908 289.989 268.431 290.182C268.965 290.364 269.528 290.455 270.119 290.455C270.562 290.455 270.925 290.432 271.21 290.386C271.494 290.33 271.721 290.284 271.891 290.25L272.71 293.864C272.437 293.966 272.056 294.068 271.567 294.17C271.079 294.284 270.46 294.341 269.71 294.341C268.573 294.341 267.46 294.097 266.369 293.608C265.289 293.119 264.391 292.375 263.675 291.375C262.971 290.375 262.619 289.114 262.619 287.591V261.545ZM278.283 294V267.818H282.306V294H278.283ZM280.329 263.455C279.545 263.455 278.869 263.188 278.3 262.653C277.744 262.119 277.465 261.477 277.465 260.727C277.465 259.977 277.744 259.335 278.3 258.801C278.869 258.267 279.545 258 280.329 258C281.113 258 281.783 258.267 282.34 258.801C282.908 259.335 283.192 259.977 283.192 260.727C283.192 261.477 282.908 262.119 282.34 262.653C281.783 263.188 281.113 263.455 280.329 263.455ZM300.31 294.545C297.947 294.545 295.873 293.983 294.089 292.858C292.316 291.733 290.93 290.159 289.93 288.136C288.941 286.114 288.447 283.75 288.447 281.045C288.447 278.318 288.941 275.937 289.93 273.903C290.93 271.869 292.316 270.29 294.089 269.165C295.873 268.04 297.947 267.477 300.31 267.477C302.674 267.477 304.742 268.04 306.515 269.165C308.299 270.29 309.685 271.869 310.674 273.903C311.674 275.937 312.174 278.318 312.174 281.045C312.174 283.75 311.674 286.114 310.674 288.136C309.685 290.159 308.299 291.733 306.515 292.858C304.742 293.983 302.674 294.545 300.31 294.545ZM300.31 290.932C302.106 290.932 303.583 290.472 304.742 289.551C305.901 288.631 306.759 287.42 307.316 285.92C307.873 284.42 308.151 282.795 308.151 281.045C308.151 279.295 307.873 277.665 307.316 276.153C306.759 274.642 305.901 273.42 304.742 272.489C303.583 271.557 302.106 271.091 300.31 271.091C298.515 271.091 297.038 271.557 295.879 272.489C294.719 273.42 293.862 274.642 293.305 276.153C292.748 277.665 292.469 279.295 292.469 281.045C292.469 282.795 292.748 284.42 293.305 285.92C293.862 287.42 294.719 288.631 295.879 289.551C297.038 290.472 298.515 290.932 300.31 290.932ZM322.337 278.25V294H318.315V267.818H322.201V271.909H322.542C323.156 270.58 324.087 269.511 325.337 268.705C326.587 267.886 328.201 267.477 330.178 267.477C331.951 267.477 333.502 267.841 334.832 268.568C336.161 269.284 337.195 270.375 337.934 271.841C338.673 273.295 339.042 275.136 339.042 277.364V294H335.019V277.636C335.019 275.58 334.485 273.977 333.417 272.83C332.349 271.67 330.883 271.091 329.019 271.091C327.735 271.091 326.587 271.369 325.576 271.926C324.576 272.483 323.786 273.295 323.207 274.364C322.627 275.432 322.337 276.727 322.337 278.25ZM363.915 278.25V294H359.893V259.091H363.915V271.909H364.256C364.87 270.557 365.79 269.483 367.018 268.688C368.256 267.881 369.904 267.477 371.961 267.477C373.745 267.477 375.308 267.835 376.648 268.551C377.989 269.256 379.029 270.341 379.768 271.807C380.518 273.261 380.893 275.114 380.893 277.364V294H376.87V277.636C376.87 275.557 376.33 273.949 375.251 272.812C374.183 271.665 372.7 271.091 370.802 271.091C369.484 271.091 368.302 271.369 367.256 271.926C366.222 272.483 365.404 273.295 364.802 274.364C364.211 275.432 363.915 276.727 363.915 278.25ZM399.229 294.545C396.707 294.545 394.531 293.989 392.701 292.875C390.883 291.75 389.479 290.182 388.491 288.17C387.513 286.148 387.025 283.795 387.025 281.114C387.025 278.432 387.513 276.068 388.491 274.023C389.479 271.966 390.854 270.364 392.616 269.216C394.388 268.057 396.457 267.477 398.82 267.477C400.184 267.477 401.531 267.705 402.86 268.159C404.19 268.614 405.4 269.352 406.491 270.375C407.582 271.386 408.451 272.727 409.099 274.398C409.746 276.068 410.07 278.125 410.07 280.568V282.273H389.888V278.795H405.979C405.979 277.318 405.684 276 405.093 274.841C404.513 273.682 403.684 272.767 402.604 272.097C401.536 271.426 400.275 271.091 398.82 271.091C397.218 271.091 395.832 271.489 394.661 272.284C393.502 273.068 392.61 274.091 391.985 275.352C391.36 276.614 391.048 277.966 391.048 279.409V281.727C391.048 283.705 391.388 285.381 392.07 286.756C392.763 288.119 393.724 289.159 394.951 289.875C396.178 290.58 397.604 290.932 399.229 290.932C400.286 290.932 401.241 290.784 402.093 290.489C402.957 290.182 403.701 289.727 404.326 289.125C404.951 288.511 405.434 287.75 405.775 286.841L409.661 287.932C409.252 289.25 408.565 290.409 407.599 291.409C406.633 292.398 405.44 293.17 404.019 293.727C402.599 294.273 401.002 294.545 399.229 294.545ZM416.19 294V267.818H420.076V271.773H420.349C420.826 270.477 421.69 269.426 422.94 268.619C424.19 267.812 425.599 267.409 427.167 267.409C427.462 267.409 427.832 267.415 428.275 267.426C428.718 267.437 429.053 267.455 429.281 267.477V271.568C429.144 271.534 428.832 271.483 428.343 271.415C427.866 271.335 427.36 271.295 426.826 271.295C425.553 271.295 424.417 271.562 423.417 272.097C422.428 272.619 421.644 273.347 421.065 274.278C420.496 275.199 420.212 276.25 420.212 277.432V294H416.19ZM444.229 294.545C441.707 294.545 439.531 293.989 437.701 292.875C435.883 291.75 434.479 290.182 433.491 288.17C432.513 286.148 432.025 283.795 432.025 281.114C432.025 278.432 432.513 276.068 433.491 274.023C434.479 271.966 435.854 270.364 437.616 269.216C439.388 268.057 441.457 267.477 443.82 267.477C445.184 267.477 446.531 267.705 447.86 268.159C449.19 268.614 450.4 269.352 451.491 270.375C452.582 271.386 453.451 272.727 454.099 274.398C454.746 276.068 455.07 278.125 455.07 280.568V282.273H434.888V278.795H450.979C450.979 277.318 450.684 276 450.093 274.841C449.513 273.682 448.684 272.767 447.604 272.097C446.536 271.426 445.275 271.091 443.82 271.091C442.218 271.091 440.832 271.489 439.661 272.284C438.502 273.068 437.61 274.091 436.985 275.352C436.36 276.614 436.048 277.966 436.048 279.409V281.727C436.048 283.705 436.388 285.381 437.07 286.756C437.763 288.119 438.724 289.159 439.951 289.875C441.178 290.58 442.604 290.932 444.229 290.932C445.286 290.932 446.241 290.784 447.093 290.489C447.957 290.182 448.701 289.727 449.326 289.125C449.951 288.511 450.434 287.75 450.775 286.841L454.661 287.932C454.252 289.25 453.565 290.409 452.599 291.409C451.633 292.398 450.44 293.17 449.019 293.727C447.599 294.273 446.002 294.545 444.229 294.545ZM469.781 279.273C469.781 283.568 469.218 287.523 468.093 291.136C466.979 294.739 465.383 298.057 463.303 301.091H459.758C460.576 299.966 461.337 298.58 462.042 296.932C462.758 295.295 463.383 293.5 463.917 291.545C464.451 289.58 464.866 287.551 465.161 285.46C465.468 283.358 465.621 281.295 465.621 279.273C465.621 276.568 465.36 273.824 464.837 271.04C464.315 268.256 463.61 265.67 462.724 263.284C461.837 260.898 460.849 258.955 459.758 257.455H463.303C465.383 260.489 466.979 263.812 468.093 267.426C469.218 271.028 469.781 274.977 469.781 279.273Z" fill="black"/>
</svg>
